<mxfile host="app.diagrams.net" modified="2023-06-19T01:42:16.816Z" agent="Mozilla/5.0 (Macintosh; Intel Mac OS X 10_15_7) AppleWebKit/537.36 (KHTML, like Gecko) Chrome/114.0.0.0 Safari/537.36" version="21.5.0" etag="8vIh7aeTTmEaLhXfYRTl" type="github">
  <diagram name="Page-1" id="e5CmbYRPlsD9F1s6qAwW">
    <mxGraphModel>
      <root>
        <mxCell id="0" />
        <mxCell id="1" parent="0" />
      </root>
    </mxGraphModel>
  </diagram>
</mxfile>
